<svg xmlns="http://www.w3.org/2000/svg" viewBox="450 20 1450 810" style="cursor: move;"><g transform="translate(-667.9783849597027,-415.63287396373175) scale(2.209928969599856)"><path class="link" marker-end="" d="M556,295.5, 738,243.5" style="stroke-width: 1.54; stroke-opacity: 1; stroke: rgb(80, 80, 80); fill: none;"></path><path class="link" marker-end="" d="M556,347.5, 738,243.5" style="stroke-width: 1.54; stroke-opacity: 1; stroke: rgb(80, 80, 80); fill: none;"></path><path class="link" marker-end="" d="M556,399.5, 738,243.5" style="stroke-width: 1.54; stroke-opacity: 1; stroke: rgb(80, 80, 80); fill: none;"></path><path class="link" marker-end="" d="M556,451.5, 738,243.5" style="stroke-width: 1.54; stroke-opacity: 1; stroke: rgb(80, 80, 80); fill: none;"></path><path class="link" marker-end="" d="M556,295.5, 738,295.5" style="stroke-width: 1.54; stroke-opacity: 1; stroke: rgb(80, 80, 80); fill: none;"></path><path class="link" marker-end="" d="M556,347.5, 738,295.5" style="stroke-width: 1.54; stroke-opacity: 1; stroke: rgb(80, 80, 80); fill: none;"></path><path class="link" marker-end="" d="M556,399.5, 738,295.5" style="stroke-width: 1.54; stroke-opacity: 1; stroke: rgb(80, 80, 80); fill: none;"></path><path class="link" marker-end="" d="M556,451.5, 738,295.5" style="stroke-width: 1.54; stroke-opacity: 1; stroke: rgb(80, 80, 80); fill: none;"></path><path class="link" marker-end="" d="M738,243.5, 920,217.5" style="stroke-width: 1.54; stroke-opacity: 1; stroke: rgb(80, 80, 80); fill: none;"></path><path class="link" marker-end="" d="M738,295.5, 920,217.5" style="stroke-width: 1.54; stroke-opacity: 1; stroke: rgb(80, 80, 80); fill: none;"></path><path class="link" marker-end="" d="M738,243.5, 920,269.5" style="stroke-width: 1.54; stroke-opacity: 1; stroke: rgb(80, 80, 80); fill: none;"></path><path class="link" marker-end="" d="M738,295.5, 920,269.5" style="stroke-width: 1.54; stroke-opacity: 1; stroke: rgb(80, 80, 80); fill: none;"></path><path class="link" marker-end="" d="M556,295.5, 738,347.5" style="stroke-width: 1.54; stroke-opacity: 1; stroke: rgb(80, 80, 80); fill: none;"></path><path class="link" marker-end="" d="M556,347.5, 738,347.5" style="stroke-width: 1.54; stroke-opacity: 1; stroke: rgb(80, 80, 80); fill: none;"></path><path class="link" marker-end="" d="M556,399.5, 738,347.5" style="stroke-width: 1.54; stroke-opacity: 1; stroke: rgb(80, 80, 80); fill: none;"></path><path class="link" marker-end="" d="M556,451.5, 738,347.5" style="stroke-width: 1.54; stroke-opacity: 1; stroke: rgb(80, 80, 80); fill: none;"></path><path class="link" marker-end="" d="M738,347.5, 920,217.5" style="stroke-width: 1.54; stroke-opacity: 1; stroke: rgb(80, 80, 80); fill: none;"></path><path class="link" marker-end="" d="M738,347.5, 920,269.5" style="stroke-width: 1.54; stroke-opacity: 1; stroke: rgb(80, 80, 80); fill: none;"></path><path class="link" marker-end="" d="M556,295.5, 738,399.5" style="stroke-width: 1.54; stroke-opacity: 1; stroke: rgb(80, 80, 80); fill: none;"></path><path class="link" marker-end="" d="M556,347.5, 738,399.5" style="stroke-width: 1.54; stroke-opacity: 1; stroke: rgb(80, 80, 80); fill: none;"></path><path class="link" marker-end="" d="M556,399.5, 738,399.5" style="stroke-width: 1.54; stroke-opacity: 1; stroke: rgb(80, 80, 80); fill: none;"></path><path class="link" marker-end="" d="M556,451.5, 738,399.5" style="stroke-width: 1.54; stroke-opacity: 1; stroke: rgb(80, 80, 80); fill: none;"></path><path class="link" marker-end="" d="M738,399.5, 920,217.5" style="stroke-width: 1.54; stroke-opacity: 1; stroke: rgb(80, 80, 80); fill: none;"></path><path class="link" marker-end="" d="M738,399.5, 920,269.5" style="stroke-width: 1.54; stroke-opacity: 1; stroke: rgb(80, 80, 80); fill: none;"></path><path class="link" marker-end="" d="M556,295.5, 738,451.5" style="stroke-width: 1.54; stroke-opacity: 1; stroke: rgb(80, 80, 80); fill: none;"></path><path class="link" marker-end="" d="M556,347.5, 738,451.5" style="stroke-width: 1.54; stroke-opacity: 1; stroke: rgb(80, 80, 80); fill: none;"></path><path class="link" marker-end="" d="M556,399.5, 738,451.5" style="stroke-width: 1.54; stroke-opacity: 1; stroke: rgb(80, 80, 80); fill: none;"></path><path class="link" marker-end="" d="M556,451.5, 738,451.5" style="stroke-width: 1.54; stroke-opacity: 1; stroke: rgb(80, 80, 80); fill: none;"></path><path class="link" marker-end="" d="M738,451.5, 920,217.5" style="stroke-width: 1.54; stroke-opacity: 1; stroke: rgb(80, 80, 80); fill: none;"></path><path class="link" marker-end="" d="M738,451.5, 920,269.5" style="stroke-width: 1.54; stroke-opacity: 1; stroke: rgb(80, 80, 80); fill: none;"></path><path class="link" marker-end="" d="M920,217.5, 1102,347.5" style="stroke-width: 1.54; stroke-opacity: 1; stroke: rgb(80, 80, 80); fill: none;"></path><path class="link" marker-end="" d="M920,269.5, 1102,347.5" style="stroke-width: 1.54; stroke-opacity: 1; stroke: rgb(80, 80, 80); fill: none;"></path><path class="link" marker-end="" d="M920,217.5, 1102,399.5" style="stroke-width: 1.54; stroke-opacity: 1; stroke: rgb(80, 80, 80); fill: none;"></path><path class="link" marker-end="" d="M920,269.5, 1102,399.5" style="stroke-width: 1.54; stroke-opacity: 1; stroke: rgb(80, 80, 80); fill: none;"></path><path class="link" marker-end="" d="M738,243.5, 920,321.5" style="stroke-width: 1.54; stroke-opacity: 1; stroke: rgb(80, 80, 80); fill: none;"></path><path class="link" marker-end="" d="M738,295.5, 920,321.5" style="stroke-width: 1.54; stroke-opacity: 1; stroke: rgb(80, 80, 80); fill: none;"></path><path class="link" marker-end="" d="M738,347.5, 920,321.5" style="stroke-width: 1.54; stroke-opacity: 1; stroke: rgb(80, 80, 80); fill: none;"></path><path class="link" marker-end="" d="M738,399.5, 920,321.5" style="stroke-width: 1.54; stroke-opacity: 1; stroke: rgb(80, 80, 80); fill: none;"></path><path class="link" marker-end="" d="M738,451.5, 920,321.5" style="stroke-width: 1.54; stroke-opacity: 1; stroke: rgb(80, 80, 80); fill: none;"></path><path class="link" marker-end="" d="M920,321.5, 1102,347.5" style="stroke-width: 1.54; stroke-opacity: 1; stroke: rgb(80, 80, 80); fill: none;"></path><path class="link" marker-end="" d="M920,321.5, 1102,399.5" style="stroke-width: 1.54; stroke-opacity: 1; stroke: rgb(80, 80, 80); fill: none;"></path><path class="link" marker-end="" d="M738,243.5, 920,373.5" style="stroke-width: 1.54; stroke-opacity: 1; stroke: rgb(80, 80, 80); fill: none;"></path><path class="link" marker-end="" d="M738,295.5, 920,373.5" style="stroke-width: 1.54; stroke-opacity: 1; stroke: rgb(80, 80, 80); fill: none;"></path><path class="link" marker-end="" d="M738,347.5, 920,373.5" style="stroke-width: 1.54; stroke-opacity: 1; stroke: rgb(80, 80, 80); fill: none;"></path><path class="link" marker-end="" d="M738,399.5, 920,373.5" style="stroke-width: 1.54; stroke-opacity: 1; stroke: rgb(80, 80, 80); fill: none;"></path><path class="link" marker-end="" d="M738,451.5, 920,373.5" style="stroke-width: 1.54; stroke-opacity: 1; stroke: rgb(80, 80, 80); fill: none;"></path><path class="link" marker-end="" d="M920,373.5, 1102,347.5" style="stroke-width: 1.54; stroke-opacity: 1; stroke: rgb(80, 80, 80); fill: none;"></path><path class="link" marker-end="" d="M920,373.5, 1102,399.5" style="stroke-width: 1.54; stroke-opacity: 1; stroke: rgb(80, 80, 80); fill: none;"></path><path class="link" marker-end="" d="M738,243.5, 920,425.5" style="stroke-width: 1.54; stroke-opacity: 1; stroke: rgb(80, 80, 80); fill: none;"></path><path class="link" marker-end="" d="M738,295.5, 920,425.5" style="stroke-width: 1.54; stroke-opacity: 1; stroke: rgb(80, 80, 80); fill: none;"></path><path class="link" marker-end="" d="M738,347.5, 920,425.5" style="stroke-width: 1.54; stroke-opacity: 1; stroke: rgb(80, 80, 80); fill: none;"></path><path class="link" marker-end="" d="M738,399.5, 920,425.5" style="stroke-width: 1.54; stroke-opacity: 1; stroke: rgb(80, 80, 80); fill: none;"></path><path class="link" marker-end="" d="M738,451.5, 920,425.5" style="stroke-width: 1.54; stroke-opacity: 1; stroke: rgb(80, 80, 80); fill: none;"></path><path class="link" marker-end="" d="M920,425.5, 1102,347.5" style="stroke-width: 1.54; stroke-opacity: 1; stroke: rgb(80, 80, 80); fill: none;"></path><path class="link" marker-end="" d="M920,425.5, 1102,399.5" style="stroke-width: 1.54; stroke-opacity: 1; stroke: rgb(80, 80, 80); fill: none;"></path><path class="link" marker-end="" d="M556,295.5, 738,503.5" style="stroke-width: 1.54; stroke-opacity: 1; stroke: rgb(80, 80, 80); fill: none;"></path><path class="link" marker-end="" d="M556,347.5, 738,503.5" style="stroke-width: 1.54; stroke-opacity: 1; stroke: rgb(80, 80, 80); fill: none;"></path><path class="link" marker-end="" d="M556,399.5, 738,503.5" style="stroke-width: 1.54; stroke-opacity: 1; stroke: rgb(80, 80, 80); fill: none;"></path><path class="link" marker-end="" d="M556,451.5, 738,503.5" style="stroke-width: 1.54; stroke-opacity: 1; stroke: rgb(80, 80, 80); fill: none;"></path><path class="link" marker-end="" d="M738,503.5, 920,217.5" style="stroke-width: 1.54; stroke-opacity: 1; stroke: rgb(80, 80, 80); fill: none;"></path><path class="link" marker-end="" d="M738,503.5, 920,269.5" style="stroke-width: 1.54; stroke-opacity: 1; stroke: rgb(80, 80, 80); fill: none;"></path><path class="link" marker-end="" d="M738,503.5, 920,321.5" style="stroke-width: 1.54; stroke-opacity: 1; stroke: rgb(80, 80, 80); fill: none;"></path><path class="link" marker-end="" d="M738,503.5, 920,373.5" style="stroke-width: 1.54; stroke-opacity: 1; stroke: rgb(80, 80, 80); fill: none;"></path><path class="link" marker-end="" d="M738,503.5, 920,425.5" style="stroke-width: 1.54; stroke-opacity: 1; stroke: rgb(80, 80, 80); fill: none;"></path><path class="link" marker-end="" d="M738,243.5, 920,477.5" style="stroke-width: 1.54; stroke-opacity: 1; stroke: rgb(80, 80, 80); fill: none;"></path><path class="link" marker-end="" d="M738,295.5, 920,477.5" style="stroke-width: 1.54; stroke-opacity: 1; stroke: rgb(80, 80, 80); fill: none;"></path><path class="link" marker-end="" d="M738,347.5, 920,477.5" style="stroke-width: 1.54; stroke-opacity: 1; stroke: rgb(80, 80, 80); fill: none;"></path><path class="link" marker-end="" d="M738,399.5, 920,477.5" style="stroke-width: 1.54; stroke-opacity: 1; stroke: rgb(80, 80, 80); fill: none;"></path><path class="link" marker-end="" d="M738,451.5, 920,477.5" style="stroke-width: 1.54; stroke-opacity: 1; stroke: rgb(80, 80, 80); fill: none;"></path><path class="link" marker-end="" d="M738,503.5, 920,477.5" style="stroke-width: 1.54; stroke-opacity: 1; stroke: rgb(80, 80, 80); fill: none;"></path><path class="link" marker-end="" d="M920,477.5, 1102,347.5" style="stroke-width: 1.54; stroke-opacity: 1; stroke: rgb(80, 80, 80); fill: none;"></path><path class="link" marker-end="" d="M920,477.5, 1102,399.5" style="stroke-width: 1.54; stroke-opacity: 1; stroke: rgb(80, 80, 80); fill: none;"></path><path class="link" marker-end="" d="M738,243.5, 920,529.5" style="stroke-width: 1.54; stroke-opacity: 1; stroke: rgb(80, 80, 80); fill: none;"></path><path class="link" marker-end="" d="M738,295.5, 920,529.5" style="stroke-width: 1.54; stroke-opacity: 1; stroke: rgb(80, 80, 80); fill: none;"></path><path class="link" marker-end="" d="M738,347.5, 920,529.5" style="stroke-width: 1.54; stroke-opacity: 1; stroke: rgb(80, 80, 80); fill: none;"></path><path class="link" marker-end="" d="M738,399.5, 920,529.5" style="stroke-width: 1.54; stroke-opacity: 1; stroke: rgb(80, 80, 80); fill: none;"></path><path class="link" marker-end="" d="M738,451.5, 920,529.5" style="stroke-width: 1.54; stroke-opacity: 1; stroke: rgb(80, 80, 80); fill: none;"></path><path class="link" marker-end="" d="M738,503.5, 920,529.5" style="stroke-width: 1.54; stroke-opacity: 1; stroke: rgb(80, 80, 80); fill: none;"></path><path class="link" marker-end="" d="M920,529.5, 1102,347.5" style="stroke-width: 1.54; stroke-opacity: 1; stroke: rgb(80, 80, 80); fill: none;"></path><path class="link" marker-end="" d="M920,529.5, 1102,399.5" style="stroke-width: 1.54; stroke-opacity: 1; stroke: rgb(80, 80, 80); fill: none;"></path><circle r="16" class="node" id="0_0" cx="556" cy="295.5" style="fill: rgb(255, 255, 255); stroke: rgb(51, 51, 51);"></circle><text class="text" dy=".35em" x="521" y="551.5" style="font-size: 12px;">Input Layer ∈ ℝ⁴</text><circle r="16" class="node" id="0_1" cx="556" cy="347.5" style="fill: rgb(255, 255, 255); stroke: rgb(51, 51, 51);"></circle><circle r="16" class="node" id="0_2" cx="556" cy="399.5" style="fill: rgb(255, 255, 255); stroke: rgb(51, 51, 51);"></circle><circle r="16" class="node" id="0_3" cx="556" cy="451.5" style="fill: rgb(255, 255, 255); stroke: rgb(51, 51, 51);"></circle><circle r="16" class="node" id="1_0" cx="738" cy="243.5" style="fill: rgb(255, 255, 255); stroke: rgb(51, 51, 51);"></circle><text class="text" dy=".35em" x="703" y="551.5" style="font-size: 12px;">Hidden Layer ∈ ℝ⁶</text><circle r="16" class="node" id="1_1" cx="738" cy="295.5" style="fill: rgb(255, 255, 255); stroke: rgb(51, 51, 51);"></circle><circle r="16" class="node" id="1_2" cx="738" cy="347.5" style="fill: rgb(255, 255, 255); stroke: rgb(51, 51, 51);"></circle><circle r="16" class="node" id="1_3" cx="738" cy="399.5" style="fill: rgb(255, 255, 255); stroke: rgb(51, 51, 51);"></circle><circle r="16" class="node" id="1_4" cx="738" cy="451.5" style="fill: rgb(255, 255, 255); stroke: rgb(51, 51, 51);"></circle><circle r="16" class="node" id="1_5" cx="738" cy="503.5" style="fill: rgb(255, 255, 255); stroke: rgb(51, 51, 51);"></circle><circle r="16" class="node" id="2_0" cx="920" cy="217.5" style="fill: rgb(255, 255, 255); stroke: rgb(51, 51, 51);"></circle><text class="text" dy=".35em" x="885" y="551.5" style="font-size: 12px;">Hidden Layer ∈ ℝ⁷</text><circle r="16" class="node" id="2_1" cx="920" cy="269.5" style="fill: rgb(255, 255, 255); stroke: rgb(51, 51, 51);"></circle><circle r="16" class="node" id="2_2" cx="920" cy="321.5" style="fill: rgb(255, 255, 255); stroke: rgb(51, 51, 51);"></circle><circle r="16" class="node" id="2_3" cx="920" cy="373.5" style="fill: rgb(255, 255, 255); stroke: rgb(51, 51, 51);"></circle><circle r="16" class="node" id="2_4" cx="920" cy="425.5" style="fill: rgb(255, 255, 255); stroke: rgb(51, 51, 51);"></circle><circle r="16" class="node" id="2_5" cx="920" cy="477.5" style="fill: rgb(255, 255, 255); stroke: rgb(51, 51, 51);"></circle><circle r="16" class="node" id="2_6" cx="920" cy="529.5" style="fill: rgb(255, 255, 255); stroke: rgb(51, 51, 51);"></circle><circle r="16" class="node" id="3_0" cx="1102" cy="347.5" style="fill: rgb(255, 255, 255); stroke: rgb(51, 51, 51);"></circle><text class="text" dy=".35em" x="1067" y="551.5" style="font-size: 12px;">Output Layer ∈ ℝ²</text><circle r="16" class="node" id="3_1" cx="1102" cy="399.5" style="fill: rgb(255, 255, 255); stroke: rgb(51, 51, 51);"></circle></g><defs><marker id="arrow" viewBox="0 -5 10 10" markerWidth="7" markerHeight="7" orient="auto" refX="56.8"><path d="M0,-5L10,0L0,5" style="stroke: rgb(80, 80, 80); fill: none;"></path></marker></defs></svg>