<svg xmlns="http://www.w3.org/2000/svg" viewBox="630 280 230 190" style="cursor: move;">
<g><path class="link" marker-end="" d="M656,299.5, 836,349.5" style="stroke-width: 2; stroke-opacity: 1; stroke: rgb(80, 80, 80); fill: none;"></path><path class="link" marker-end="" d="M656,349.5, 836,349.5" style="stroke-width: 2; stroke-opacity: 1; stroke: rgb(80, 80, 80); fill: none;"></path><path class="link" marker-end="" d="M656,399.5, 836,349.5" style="stroke-width: 2; stroke-opacity: 1; stroke: rgb(80, 80, 80); fill: none;"></path><path class="link" marker-end="" d="M656,449.5, 836,349.5" style="stroke-width: 2; stroke-opacity: 1; stroke: rgb(80, 80, 80); fill: none;"></path><path class="link" marker-end="" d="M656,299.5, 836,399.5" style="stroke-width: 2; stroke-opacity: 1; stroke: rgb(80, 80, 80); fill: none;"></path><path class="link" marker-end="" d="M656,349.5, 836,399.5" style="stroke-width: 2; stroke-opacity: 1; stroke: rgb(80, 80, 80); fill: none;"></path><path class="link" marker-end="" d="M656,399.5, 836,399.5" style="stroke-width: 2; stroke-opacity: 1; stroke: rgb(80, 80, 80); fill: none;"></path><path class="link" marker-end="" d="M656,449.5, 836,399.5" style="stroke-width: 2; stroke-opacity: 1; stroke: rgb(80, 80, 80); fill: none;"></path><circle r="18" class="node" id="0_0" cx="656" cy="299.5" style="fill: rgb(255, 255, 255); stroke: rgb(51, 51, 51);"></circle><text class="text" dy=".35em" x="621" y="499.5" style="font-size: 12px;"></text><circle r="18" class="node" id="0_1" cx="656" cy="349.5" style="fill: rgb(255, 255, 255); stroke: rgb(51, 51, 51);"></circle><circle r="18" class="node" id="0_2" cx="656" cy="399.5" style="fill: rgb(255, 255, 255); stroke: rgb(51, 51, 51);"></circle><circle r="18" class="node" id="0_3" cx="656" cy="449.5" style="fill: rgb(255, 255, 255); stroke: rgb(51, 51, 51);"></circle><circle r="18" class="node" id="1_0" cx="836" cy="349.5" style="fill: rgb(255, 255, 255); stroke: rgb(51, 51, 51);"></circle><text class="text" dy=".35em" x="801" y="499.5" style="font-size: 12px;"></text><circle r="18" class="node" id="1_1" cx="836" cy="399.5" style="fill: rgb(255, 255, 255); stroke: rgb(51, 51, 51);"></circle></g><defs><marker id="arrow" viewBox="0 -5 10 10" markerWidth="7" markerHeight="7" orient="auto" refX="62.4"><path d="M0,-5L10,0L0,5" style="stroke: rgb(80, 80, 80); fill: none;"></path></marker></defs></svg>
